<?xml version="1.0" encoding="UTF-8" standalone="no"?><!DOCTYPE svg PUBLIC "-//W3C//DTD SVG 1.1//EN" "http://www.w3.org/Graphics/SVG/1.1/DTD/svg11.dtd"><svg width="100%" height="100%" viewBox="0 0 50 50" version="1.1" xmlns="http://www.w3.org/2000/svg" xmlns:xlink="http://www.w3.org/1999/xlink" xml:space="preserve" xmlns:serif="http://www.serif.com/" style="fill-rule:evenodd;clip-rule:evenodd;stroke-linejoin:round;stroke-miterlimit:2;"><path d="M23.386,1.343c0.144,-0.778 0.823,-1.343 1.614,-1.343c0.791,0 1.47,0.565 1.614,1.343l2.983,16.12c0.048,0.26 0.195,0.492 0.409,0.647c0.214,0.156 0.48,0.223 0.742,0.189l16.253,-2.144c0.784,-0.104 1.531,0.367 1.775,1.12c0.245,0.752 -0.082,1.572 -0.778,1.949l-14.409,7.819c-0.233,0.126 -0.408,0.337 -0.49,0.589c-0.081,0.251 -0.064,0.525 0.051,0.764l7.061,14.795c0.341,0.714 0.124,1.569 -0.516,2.034c-0.64,0.466 -1.521,0.408 -2.095,-0.137l-11.889,-11.288c-0.192,-0.182 -0.446,-0.284 -0.711,-0.284c-0.265,0 -0.519,0.102 -0.711,0.284l-11.889,11.288c-0.574,0.545 -1.455,0.603 -2.095,0.137c-0.64,-0.465 -0.857,-1.32 -0.516,-2.034l7.061,-14.795c0.115,-0.239 0.132,-0.513 0.051,-0.764c-0.082,-0.252 -0.257,-0.463 -0.49,-0.589l-14.409,-7.819c-0.696,-0.377 -1.023,-1.197 -0.778,-1.949c0.244,-0.753 0.991,-1.224 1.775,-1.12l16.253,2.144c0.262,0.034 0.528,-0.033 0.742,-0.189c0.214,-0.155 0.361,-0.387 0.409,-0.647l2.983,-16.12Z"/></svg>